<svg width="16" height="16" viewBox="0 0 16 16" fill="none" xmlns="http://www.w3.org/2000/svg">
<mask id="path-1-inside-1_360_1299" fill="white">
<path fill-rule="evenodd" clip-rule="evenodd" d="M7.95287 14C7.16744 14 1.00006 9.78326 1.00006 5.88841C1.00006 3.73736 2.71166 2 4.86272 2C6.06734 2 7.36363 2.94275 7.95287 3.80258C8.54212 2.94275 9.8384 2 11.043 2C13.1941 2 14.9057 3.73736 14.9057 5.88841C14.9057 9.78326 8.7383 14 7.95287 14Z"/>
</mask>
<path d="M7.95287 3.80258L7.12799 4.36788L7.95287 5.57155L8.77776 4.36788L7.95287 3.80258ZM5.76973e-05 5.88841C5.76973e-05 7.11966 0.483384 8.29949 1.12842 9.32968C1.77829 10.3676 2.63705 11.3253 3.49715 12.1335C4.35969 12.944 5.2488 13.6277 5.98289 14.114C6.34896 14.3565 6.68933 14.5584 6.97846 14.7042C7.12217 14.7766 7.26749 14.8424 7.40624 14.8924C7.52023 14.9335 7.72434 15 7.95287 15V13C8.08323 13 8.14711 13.0335 8.08446 13.0109C8.04658 12.9973 7.97886 12.9687 7.87877 12.9183C7.68028 12.8182 7.40996 12.6603 7.08739 12.4466C6.44419 12.0205 5.64419 11.4066 4.8667 10.676C4.08678 9.94317 3.3546 9.11644 2.82355 8.2683C2.28765 7.41242 2.00006 6.60459 2.00006 5.88841H5.76973e-05ZM4.86272 1C2.15073 1 5.76973e-05 3.19376 5.76973e-05 5.88841H2.00006C2.00006 4.28095 3.2726 3 4.86272 3V1ZM8.77776 3.23728C8.39694 2.68159 7.82038 2.13881 7.16909 1.73119C6.52212 1.32627 5.71302 1 4.86272 1V3C5.21704 3 5.6584 3.14511 6.10804 3.42652C6.55335 3.70523 6.91956 4.06374 7.12799 4.36788L8.77776 3.23728ZM8.77776 4.36788C8.98618 4.06374 9.35239 3.70523 9.79771 3.42652C10.2473 3.14511 10.6887 3 11.043 3V1C10.1927 1 9.38363 1.32627 8.73665 1.73119C8.08536 2.13881 7.50881 2.68159 7.12799 3.23728L8.77776 4.36788ZM11.043 3C12.6331 3 13.9057 4.28095 13.9057 5.88841H15.9057C15.9057 3.19376 13.755 1 11.043 1V3ZM13.9057 5.88841C13.9057 6.60459 13.6181 7.41242 13.0822 8.2683C12.5511 9.11644 11.819 9.94317 11.039 10.676C10.2616 11.4066 9.46155 12.0205 8.81835 12.4466C8.49578 12.6603 8.22546 12.8182 8.02698 12.9183C7.92688 12.9687 7.85916 12.9973 7.82128 13.0109C7.75863 13.0335 7.82252 13 7.95287 13V15C8.18141 15 8.38552 14.9335 8.4995 14.8924C8.63825 14.8424 8.78357 14.7766 8.92729 14.7042C9.21641 14.5584 9.55678 14.3565 9.92285 14.114C10.6569 13.6277 11.5461 12.944 12.4086 12.1335C13.2687 11.3253 14.1274 10.3676 14.7773 9.32968C15.4224 8.29949 15.9057 7.11966 15.9057 5.88841H13.9057Z" fill="#4C515C" mask="url(#path-1-inside-1_360_1299)"/>
</svg>
