<svg width="24" height="24" viewBox="0 0 24 24" fill="none" xmlns="http://www.w3.org/2000/svg">
<circle cx="12" cy="12" r="7.25" stroke="#D9D9D9" stroke-width="1.5"/>
<path d="M10.7608 12.7236C10.7608 12.4596 10.7968 12.2236 10.8688 12.0156C10.9408 11.8076 11.0568 11.6116 11.2168 11.4276C11.3848 11.2436 11.6048 11.0556 11.8768 10.8636C12.1168 10.6876 12.3088 10.5316 12.4528 10.3956C12.6048 10.2596 12.7128 10.1236 12.7768 9.98765C12.8488 9.85165 12.8848 9.69965 12.8848 9.53165C12.8848 9.27565 12.7888 9.08365 12.5968 8.95565C12.4128 8.81965 12.1528 8.75165 11.8168 8.75165C11.4808 8.75165 11.1488 8.80365 10.8208 8.90765C10.4928 9.01165 10.1568 9.15165 9.81276 9.32765L9.17676 8.04365C9.56876 7.82765 9.99276 7.65165 10.4488 7.51565C10.9048 7.37965 11.4048 7.31165 11.9488 7.31165C12.7808 7.31165 13.4248 7.51165 13.8808 7.91165C14.3448 8.31165 14.5768 8.81965 14.5768 9.43565C14.5768 9.76365 14.5248 10.0476 14.4208 10.2876C14.3168 10.5276 14.1608 10.7516 13.9528 10.9596C13.7448 11.1596 13.4848 11.3756 13.1728 11.6076C12.9408 11.7756 12.7608 11.9196 12.6328 12.0396C12.5048 12.1596 12.4168 12.2756 12.3688 12.3876C12.3288 12.4996 12.3088 12.6396 12.3088 12.8076V13.1556H10.7608V12.7236ZM10.5688 15.1596C10.5688 14.7916 10.6688 14.5356 10.8688 14.3916C11.0688 14.2396 11.3128 14.1636 11.6008 14.1636C11.8808 14.1636 12.1208 14.2396 12.3208 14.3916C12.5208 14.5356 12.6208 14.7916 12.6208 15.1596C12.6208 15.5116 12.5208 15.7676 12.3208 15.9276C12.1208 16.0796 11.8808 16.1556 11.6008 16.1556C11.3128 16.1556 11.0688 16.0796 10.8688 15.9276C10.6688 15.7676 10.5688 15.5116 10.5688 15.1596Z" fill="#D9D9D9"/>
</svg>
