<svg width="24" height="24" viewBox="0 0 24 24" fill="none" xmlns="http://www.w3.org/2000/svg">
<g clip-path="url(#clip0_360_1676)">
<path d="M5.5 10.215V19.785C5.5 20.5245 6.172 21.135 6.988 21.135H17.512C18.3265 21.135 19 20.526 19 19.785V10.215C19 9.47551 18.328 8.86501 17.512 8.86501H6.988C6.1735 8.86501 5.5 9.47401 5.5 10.215ZM10 7.50001V8.86501H14.5V7.50001H17.512C19.162 7.50001 20.5 8.72701 20.5 10.215V19.785C20.5 21.285 19.15 22.5 17.512 22.5H6.988C5.338 22.5 4 21.273 4 19.785V10.215C4 8.71501 5.35 7.50001 6.988 7.50001H10ZM12.9955 2.17201C12.9983 2.19792 12.9998 2.22395 13 2.25001V14.25C13 14.4489 12.921 14.6397 12.7803 14.7803C12.6397 14.921 12.4489 15 12.25 15C12.0511 15 11.8603 14.921 11.7197 14.7803C11.579 14.6397 11.5 14.4489 11.5 14.25V2.25001C11.4999 2.24151 11.4999 2.23301 11.5 2.22451L8.77 5.09101C8.69689 5.17154 8.60774 5.23589 8.50829 5.27992C8.40883 5.32396 8.30127 5.34671 8.1925 5.34671C8.08373 5.34671 7.97617 5.32396 7.87671 5.27992C7.77726 5.23589 7.68811 5.17154 7.615 5.09101C7.46058 4.92075 7.37505 4.69912 7.37505 4.46926C7.37505 4.23941 7.46058 4.01777 7.615 3.84751L10.54 0.772511C10.7583 0.529259 11.0254 0.33471 11.3239 0.201527C11.6224 0.0683434 11.9456 -0.000488281 12.2725 -0.000488281C12.5994 -0.000488281 12.9226 0.0683434 13.2211 0.201527C13.5196 0.33471 13.7867 0.529259 14.005 0.772511L16.93 3.84751C17.0848 4.01786 17.1706 4.23981 17.1706 4.47001C17.1706 4.70022 17.0848 4.92216 16.93 5.09251C16.8569 5.17304 16.7677 5.23739 16.6683 5.28142C16.5688 5.32546 16.4613 5.34821 16.3525 5.34821C16.2437 5.34821 16.1362 5.32546 16.0367 5.28142C15.9373 5.23739 15.8481 5.17304 15.775 5.09251L12.9955 2.17201Z" fill="white"/>
</g>
<defs>
<clipPath id="clip0_360_1676">
<rect width="24" height="24" fill="white"/>
</clipPath>
</defs>
</svg>
