<svg width="24" height="24" viewBox="0 0 24 24" fill="none" xmlns="http://www.w3.org/2000/svg">
<mask id="path-1-inside-1_328_765" fill="white">
<path d="M3.51542 13C2.95295 11.625 3.00102 10.6667 3.00102 10.6667C3.00102 5.88 7.38525 2 12.0005 2C16.6158 2 21 5.88 21 10.6667C21 10.6667 21.0048 11.7083 20.4856 13"/>
</mask>
<path d="M1.66431 13.7572C2.08252 14.7796 3.25031 15.2693 4.27265 14.8511C5.29499 14.4329 5.78473 13.2651 5.36653 12.2428L1.66431 13.7572ZM3.00102 10.6667L4.99851 10.7669C5.00019 10.7335 5.00102 10.7001 5.00102 10.6667H3.00102ZM21 10.6667H19L19 10.6759L21 10.6667ZM18.6299 12.2541C18.2179 13.279 18.7148 14.4437 19.7397 14.8557C20.7646 15.2677 21.9293 14.7708 22.3413 13.7459L18.6299 12.2541ZM5.36653 12.2428C5.15477 11.7251 5.06534 11.3041 5.02752 11.0372C5.0086 10.9036 5.00267 10.8091 5.00082 10.761C4.9999 10.7371 5.00001 10.7249 5 10.7255C5 10.7258 4.99997 10.7293 4.99977 10.7361C4.99967 10.7396 4.99953 10.7438 4.99932 10.749C4.99922 10.7515 4.9991 10.7543 4.99897 10.7573C4.9989 10.7588 4.99883 10.7603 4.99876 10.7619C4.99872 10.7627 4.99868 10.7635 4.99864 10.7643C4.99862 10.7648 4.99859 10.7654 4.99858 10.7656C4.99854 10.7662 4.99851 10.7669 3.00102 10.6667C1.00354 10.5665 1.0035 10.5671 1.00347 10.5678C1.00346 10.568 1.00343 10.5686 1.00341 10.5691C1.00336 10.57 1.00332 10.5709 1.00328 10.5718C1.00319 10.5736 1.0031 10.5755 1.00301 10.5775C1.00284 10.5814 1.00266 10.5856 1.00248 10.59C1.00213 10.5988 1.00179 10.6086 1.00147 10.6194C1.00084 10.6409 1.00033 10.6664 1.00011 10.6956C0.999677 10.754 1.00042 10.8274 1.00378 10.9148C1.0105 11.0894 1.0277 11.3203 1.06707 11.5982C1.14583 12.1542 1.3136 12.8999 1.66431 13.7572L5.36653 12.2428ZM5.00102 10.6667C5.00102 7.10428 8.36618 4 12.0005 4V0C6.40431 0 1.00102 4.65572 1.00102 10.6667H5.00102ZM12.0005 4C15.6348 4 19 7.10428 19 10.6667H23C23 4.65572 17.5967 0 12.0005 0V4ZM21 10.6667C19 10.6759 19 10.6754 19 10.6749C19 10.6748 19 10.6743 19 10.674C19 10.6733 19 10.6727 19 10.6721C19 10.6709 19 10.6698 19 10.6687C19 10.6666 19 10.6647 19 10.663C19 10.6596 19 10.6572 19.0001 10.6556C19.0001 10.6526 19.0001 10.6531 19 10.657C18.9998 10.665 18.999 10.6864 18.9969 10.7198C18.9925 10.7871 18.9825 10.901 18.9599 11.0504C18.9144 11.3519 18.8204 11.7801 18.6299 12.2541L22.3413 13.7459C22.67 12.9282 22.8332 12.1897 22.9151 11.6476C22.9562 11.3751 22.9775 11.1478 22.9884 10.9794C22.9939 10.895 22.9968 10.825 22.9984 10.7709C22.9992 10.7438 22.9996 10.7207 22.9998 10.7017C22.9999 10.6922 23 10.6838 23 10.6764C23 10.6727 23 10.6693 23 10.6661C23 10.6645 23 10.663 23 10.6616C23 10.6609 23 10.6601 23 10.6595C23 10.6591 23 10.6586 23 10.6584C23 10.6579 23 10.6574 21 10.6667Z" fill="white" mask="url(#path-1-inside-1_328_765)"/>
<path fill-rule="evenodd" clip-rule="evenodd" d="M4.99475 12.0132C5.23052 11.9865 5.47007 12.0004 5.69953 12.0543C5.929 12.1082 6.14381 12.2009 6.33152 12.3271C6.51865 12.4529 6.67514 12.6095 6.79197 12.7878C6.79232 12.7883 6.79268 12.7888 6.79304 12.7894L11.0026 19.1795C11.2376 19.5369 11.3015 19.9603 11.18 20.3578C11.0585 20.7553 10.7616 21.0957 10.353 21.3061L10.3456 21.3099L9.68263 21.6448C9.68245 21.6449 9.68281 21.6447 9.68263 21.6448C8.51923 22.233 7.16625 22.0247 6.05789 21.5C4.93229 20.9671 3.88416 20.0426 3.11929 18.8801C2.35467 17.718 1.96688 16.4637 2.00222 15.3495C2.03694 14.2546 2.50084 13.1333 3.65943 12.5469L4.32609 12.2101C4.5317 12.1069 4.75898 12.0399 4.99475 12.0132ZM5.1286 13.8752L9.08256 19.8774L8.63874 20.1016C8.33709 20.2542 7.80435 20.2886 7.05114 19.932C6.31499 19.5835 5.52452 18.9199 4.9168 17.9963C4.30882 17.0722 4.04594 16.1374 4.06937 15.3985C4.09341 14.6407 4.39751 14.245 4.70398 14.0897C4.70387 14.0898 4.70408 14.0897 4.70398 14.0897L5.1286 13.8752ZM18.8706 13.8752L19.2952 14.0897C19.6018 14.2448 19.9064 14.6405 19.9306 15.3983C19.9542 16.137 19.6914 17.0716 19.0828 17.9954C18.4739 18.9194 17.6833 19.5831 16.9473 19.9316C16.1944 20.2882 15.6627 20.254 15.361 20.1014L14.9167 19.877L18.8706 13.8752ZM18.2997 12.0543C18.5292 12.0004 18.7687 11.9865 19.0045 12.0132C19.2403 12.0399 19.4675 12.1069 19.6732 12.2101L19.6755 12.2113L20.3391 12.5465C21.4976 13.1325 21.9627 14.2538 21.9978 15.3489C22.0334 16.4633 21.6455 17.7178 20.8796 18.8802C20.114 20.0422 19.066 20.9667 17.9407 21.4995C16.8325 22.0242 15.4806 22.2329 14.3172 21.6446L13.6462 21.3057C13.2376 21.0953 12.9407 20.7549 12.8192 20.3574C12.6977 19.9599 12.7613 19.5371 12.9963 19.1797L17.2062 12.7894C17.2066 12.7888 17.207 12.7883 17.2073 12.7877C17.3241 12.6094 17.4806 12.4529 17.6677 12.3271C17.8554 12.2009 18.0702 12.1082 18.2997 12.0543Z" fill="white"/>
</svg>
